# xmcd
#
# Track frame offsets:
#	150
#	12015
#	27502
#	37839
#	49663
#	65447
#	80253
#	98963
#	114432
#	132082
#	145349
#	159643
#	173011
#	187639
#	198895
#	211983
#	223495
#	238791
#	251367
#	267701
#	278737
#	294105
#
# Disc length: 4122 seconds
#
# Revision: 0
# Processed by: cddbd v1.5.2PL0 Copyright (c) Steve Scherf et al.
# Submitted via: audiograbber 1.83.01
#
DISCID=34101816
DTITLE=Hoyt Axton - A Rusty Old Halo and Where Did The Money Go?
DYEAR=1979
DGENRE=Country
TTITLE0=A Rusty Old Halo - A Rusty Old Halo
TTITLE1=A Rusty Old Halo - Della And The Dealer
TTITLE2=A Rusty Old Halo - The Hotel Ritz
TTITLE3=A Rusty Old Halo - So Hard To Give It All Up
TTITLE4=A Rusty Old Halo - Evangelina
TTITLE5=A Rusty Old Halo - Torpedo
TTITLE6=A Rusty Old Halo - Viva Pancho Villa
TTITLE7=A Rusty Old Halo - Wild Bull Rider
TTITLE8=A Rusty Old Halo - In A Young Girl's Mind
TTITLE9=A Rusty Old Halo - Gotta Keep Rollin'
TTITLE10=Where Did The Money Go? - Everybody's Goin' On The Road
TTITLE11=Where Did The Money Go? - Betty La Rue
TTITLE12=Where Did The Money Go? - Boozers Are Losers
TTITLE13=Where Did The Money Go? - Politicians
TTITLE14=Where Did The Money Go? - (When You Dance) You Do Not Tango
TTITLE15=Where Did The Money Go? - Smile As You Go By
TTITLE16=Where Did The Money Go? - Where Did The Money Go?
TTITLE17=Where Did The Money Go? - Some People Ride
TTITLE18=Where Did The Money Go? - Midnight In Memphis
TTITLE19=Where Did The Money Go? - Ease Your Pain
TTITLE20=Where Did The Money Go? - The Battle Of New Orleans
TTITLE21=Where Did The Money Go? - The House Song
EXTD=
EXTT0=
EXTT1=
EXTT2=
EXTT3=
EXTT4=
EXTT5=
EXTT6=
EXTT7=
EXTT8=
EXTT9=
EXTT10=
EXTT11=
EXTT12=
EXTT13=
EXTT14=
EXTT15=
EXTT16=
EXTT17=
EXTT18=
EXTT19=
EXTT20=
EXTT21=
PLAYORDER=
